<?xml version="1.0" standalone="no"?>
<!DOCTYPE svg PUBLIC "-//W3C//DTD SVG 20010904//EN"
 "http://www.w3.org/TR/2001/REC-SVG-20010904/DTD/svg10.dtd">
<svg version="1.0" xmlns="http://www.w3.org/2000/svg"
 width="806.691511pt" height="784.000000pt" viewBox="0 0 806.691511 784.000000"
 preserveAspectRatio="xMidYMid meet">
<metadata>
Created by Potrace Professional 1.1m
</metadata>
<g transform="translate(-44.681582,824.000000) rotate(-360.00) scale(0.095238,-0.095238)"
fill="#000000" stroke="none">
<path d="M4683 8559 c0 -108 15 -165 74 -279 98 -193 230 -351 324 -391 29
-12 54 -21 54 -18 0 2 -12 22 -25 44 -31 48 -85 172 -100 228 -7 23 -12 84
-12 135 l0 93 -57 66 c-63 71 -227 215 -246 215 -8 0 -12 -31 -12 -93z"/>
<path d="M4557 8409 c-35 -44 -35 -44 -33 -146 3 -115 -19 -199 -88 -336 -20
-40 -35 -73 -33 -73 2 0 27 11 56 26 61 29 119 90 199 211 l57 84 -48 105
c-26 57 -50 120 -53 138 -4 19 -10 35 -14 35 -5 0 -24 -20 -43 -44z"/>
<path d="M5089 8371 c-2 -4 -8 -31 -12 -60 -15 -112 39 -264 155 -439 l55 -82
73 -21 c41 -11 113 -34 161 -51 71 -24 86 -26 80 -12 -39 86 -78 224 -78 279
l0 63 -87 84 c-48 46 -142 121 -209 166 -129 85 -130 86 -138 73z"/>
<path d="M4322 8283 c-50 -46 -121 -123 -159 -170 -65 -81 -68 -88 -68 -141 0
-59 -29 -190 -57 -257 -9 -22 -16 -42 -16 -45 0 -4 34 12 76 35 41 23 93 47
115 54 32 10 47 26 86 88 101 161 163 341 148 427 -13 77 -18 95 -26 95 -4 0
-49 -39 -99 -86z"/>
<path d="M5648 8266 c-8 -28 -14 -93 -14 -149 1 -83 7 -118 35 -203 69 -210
154 -359 239 -421 28 -20 52 -35 53 -34 1 1 -12 47 -30 101 -42 128 -51 262
-26 350 l18 61 -38 62 c-42 69 -169 236 -202 265 -20 18 -21 18 -35 -32z"/>
<path d="M3935 8234 c-59 -53 -165 -163 -210 -217 -25 -30 -26 -36 -17 -93 15
-98 -16 -227 -90 -373 -16 -31 -26 -58 -23 -61 11 -11 99 45 141 90 112 120
242 358 271 495 15 75 11 193 -7 205 -5 3 -34 -18 -65 -46z"/>
<path d="M2748 8004 c-32 -57 -75 -140 -94 -187 l-36 -83 26 -57 c42 -92 51
-192 31 -330 -9 -65 -16 -119 -14 -120 1 -1 19 12 40 29 96 79 195 417 184
628 -4 91 -41 211 -66 219 -6 2 -38 -43 -71 -99z"/>
<path d="M6569 8077 c-70 -135 -62 -350 20 -599 43 -130 77 -190 128 -229 l38
-29 -7 26 c-4 14 -13 73 -19 132 -14 126 -4 214 36 302 l26 56 -40 92 c-44
100 -146 278 -159 278 -4 0 -15 -13 -23 -29z"/>
<path d="M3503 7906 c-56 -54 -130 -133 -165 -175 -59 -75 -62 -80 -62 -138 0
-33 -7 -86 -15 -117 -8 -32 -14 -58 -13 -58 130 -56 166 -49 227 44 107 162
165 331 153 443 -11 110 -11 110 -125 1z"/>
<path d="M5989 7914 c-25 -74 -23 -182 6 -286 23 -83 71 -213 83 -228 4 -4 30
0 59 8 28 9 71 16 95 16 l44 0 6 81 c5 77 4 84 -30 145 -56 102 -219 320 -240
320 -2 0 -13 -25 -23 -56z"/>
<path d="M4694 7837 c-91 -18 -140 -40 -189 -84 -29 -27 -53 -52 -53 -57 0 -9
104 -45 178 -61 45 -10 46 -10 90 35 62 63 133 97 252 118 l102 18 -41 15
c-40 15 -285 26 -339 16z"/>
<path d="M3081 7721 c-114 -128 -159 -194 -187 -277 -15 -44 -27 -83 -27 -86
0 -3 23 3 52 14 29 11 93 27 143 36 49 8 94 18 99 21 5 3 17 41 26 85 15 67
16 92 6 152 -12 72 -30 125 -43 125 -3 0 -34 -31 -69 -70z"/>
<path d="M2485 7657 c-49 -82 -121 -226 -148 -299 -23 -60 -23 -62 -5 -132 12
-45 19 -112 20 -186 l0 -115 45 47 c25 26 67 66 94 89 47 40 51 48 78 147 22
86 28 131 29 242 1 127 -1 140 -27 195 -15 33 -33 62 -39 66 -5 4 -27 -20 -47
-54z"/>
<path d="M4934 7699 c-79 -22 -144 -60 -176 -106 l-23 -31 50 -17 c98 -32 227
-57 324 -65 96 -7 99 -6 136 21 59 46 130 72 214 79 l80 7 -125 63 -125 62
-143 3 c-111 2 -158 -2 -212 -16z"/>
<path d="M6863 7694 c-10 -14 -27 -54 -40 -88 -19 -53 -21 -77 -16 -177 8
-146 49 -317 84 -345 13 -10 55 -49 93 -87 l69 -68 6 140 c3 84 11 156 21 181
14 40 14 46 -10 109 -27 74 -140 297 -171 337 l-19 25 -17 -27z"/>
<path d="M4269 7690 c-34 -8 -100 -37 -147 -63 -136 -79 -133 -73 -52 -87 39
-7 102 -27 140 -45 68 -32 71 -32 189 -26 99 5 235 28 250 43 11 11 -15 37
-43 43 -68 15 -223 71 -241 87 -13 11 -17 25 -13 41 7 28 4 28 -83 7z"/>
<path d="M6397 7637 c-22 -47 -29 -81 -32 -148 -4 -79 -2 -87 15 -87 11 0 52
-11 91 -24 39 -13 71 -22 71 -19 0 3 -13 41 -28 84 -15 43 -35 117 -45 163
-10 46 -24 86 -31 88 -7 3 -25 -22 -41 -57z"/>
<path d="M5431 7497 c-54 -8 -134 -47 -159 -77 -16 -19 -1 -30 116 -86 l81
-38 47 37 c73 55 141 74 266 74 89 0 104 2 88 13 -80 56 -310 97 -439 77z"/>
<path d="M3798 7464 c-39 -5 -89 -17 -110 -27 l-39 -17 73 -8 c141 -14 201
-38 280 -112 l51 -47 104 33 c58 18 108 37 111 42 9 16 -95 101 -140 115 -49
14 -181 33 -227 31 -18 0 -64 -5 -103 -10z"/>
<path d="M2101 7286 c-56 -118 -107 -266 -133 -382 -19 -87 -33 -325 -19 -319
5 2 44 27 86 55 43 28 104 62 137 75 56 22 60 27 74 75 9 33 15 112 16 229 1
200 -7 233 -73 326 l-36 51 -52 -110z"/>
<path d="M7217 7342 c-66 -97 -72 -126 -70 -323 1 -115 6 -196 15 -229 14 -48
18 -52 74 -75 33 -13 94 -47 137 -75 42 -28 81 -53 86 -55 14 -6 0 232 -19
319 -27 119 -77 266 -132 380 -28 60 -53 108 -54 108 -2 0 -19 -22 -37 -50z"/>
<path d="M3040 7322 c-40 -8 -101 -27 -135 -41 -61 -24 -164 -85 -164 -96 0
-3 17 -2 39 2 155 30 242 24 336 -22 l57 -28 90 62 c49 34 90 66 90 72 0 6
-25 24 -56 40 -66 33 -138 37 -257 11z"/>
<path d="M3539 7334 c-9 -2 -34 -6 -55 -10 -35 -6 -38 -9 -28 -26 18 -28 6
-46 -74 -112 -41 -33 -73 -62 -71 -63 1 -2 51 -10 110 -20 89 -14 123 -15 206
-5 103 12 254 49 324 78 39 17 39 17 21 41 -30 41 -95 82 -153 97 -53 15 -249
29 -280 20z"/>
<path d="M6111 7312 c-32 -17 -57 -35 -57 -41 1 -6 42 -38 91 -72 l90 -62 56
28 c98 48 166 52 340 23 l42 -8 -26 22 c-39 33 -165 92 -237 111 -34 9 -103
19 -152 22 -83 6 -93 4 -147 -23z"/>
<path d="M5659 7315 c-48 -13 -100 -44 -125 -75 -12 -14 2 -23 106 -73 163
-78 248 -101 405 -108 155 -7 162 1 61 69 -113 76 -165 127 -159 154 8 32 -8
37 -135 42 -68 3 -122 0 -153 -9z"/>
<path d="M1623 7237 c-15 -50 -37 -177 -48 -278 l-12 -113 47 -54 c78 -89 122
-201 152 -382 l9 -52 30 58 c28 54 30 67 34 204 5 158 -10 277 -50 406 -23 77
-91 186 -131 212 -23 16 -26 16 -31 -1z"/>
<path d="M7729 7212 c-57 -59 -100 -148 -129 -266 -19 -80 -23 -125 -24 -284
l0 -189 31 -57 30 -58 14 78 c29 171 71 270 152 362 l42 48 -12 112 c-12 118
-39 261 -52 286 -6 10 -19 2 -52 -32z"/>
<path d="M2854 7119 c-173 -29 -288 -89 -403 -208 -49 -50 -88 -94 -88 -98 0
-19 146 -22 251 -5 157 26 300 90 456 205 l62 46 -25 19 c-56 44 -148 58 -253
41z"/>
<path d="M6374 7114 c-26 -9 -59 -25 -72 -35 l-25 -19 72 -54 c150 -111 288
-172 447 -198 103 -17 250 -14 250 5 0 4 -40 48 -89 98 -65 68 -107 101 -162
128 -145 73 -328 106 -421 75z"/>
<path d="M3190 7005 c-72 -62 -153 -117 -238 -162 l-89 -48 57 -29 c55 -29 62
-30 209 -30 132 0 167 4 268 30 112 29 264 83 282 101 14 14 -75 94 -134 121
-52 24 -187 47 -276 47 -34 0 -53 -7 -79 -30z"/>
<path d="M5980 6972 c-62 -9 -135 -43 -176 -82 l-29 -27 29 -19 c41 -28 196
-106 265 -132 65 -26 193 -61 258 -71 42 -6 44 -5 50 25 5 24 22 42 75 77 l70
45 -30 25 c-70 58 -211 138 -261 147 -78 16 -192 21 -251 12z"/>
<path d="M1466 6722 c-24 -106 -27 -123 -38 -263 l-11 -130 41 -61 c37 -55
107 -222 107 -256 0 -36 16 -18 54 60 23 47 49 94 58 104 14 16 16 38 11 132
-9 184 -59 341 -135 428 -60 68 -68 67 -87 -14z"/>
<path d="M7871 6749 c-26 -28 -60 -73 -74 -101 -38 -75 -69 -210 -78 -335 -6
-97 -5 -113 11 -134 10 -13 37 -62 60 -108 37 -77 54 -95 54 -59 0 34 69 201
106 257 l41 61 -11 135 c-11 129 -33 262 -52 311 -8 22 -11 21 -57 -27z"/>
<path d="M2630 6730 c-100 -19 -115 -26 -113 -52 3 -25 -49 -118 -112 -197
-40 -51 -65 -139 -39 -139 7 0 51 14 99 31 114 40 243 111 350 192 132 100
123 91 99 110 -67 51 -182 74 -284 55z"/>
<path d="M6604 6727 c-53 -15 -117 -49 -122 -65 -6 -21 206 -172 333 -236 58
-30 207 -84 229 -84 22 0 -2 90 -36 131 -60 75 -112 165 -114 198 -1 29 -6 33
-54 45 -82 22 -183 26 -236 11z"/>
<path d="M2252 6658 c-117 -31 -332 -190 -382 -283 -15 -28 -7 -29 31 -1 16
11 62 36 101 55 67 31 80 34 181 34 l108 0 64 87 c38 53 59 91 54 97 -14 13
-119 21 -157 11z"/>
<path d="M7031 6659 c-17 -4 -33 -12 -34 -18 -2 -6 27 -51 64 -101 l67 -92 40
11 c87 24 239 -14 339 -85 38 -28 46 -27 31 1 -21 40 -107 125 -172 172 -134
94 -248 133 -335 112z"/>
<path d="M2047 6360 c-76 -32 -167 -93 -244 -164 -51 -47 -72 -78 -119 -175
-31 -64 -56 -122 -56 -129 0 -17 19 -15 98 9 122 38 267 129 357 224 84 88
191 235 180 246 -4 4 -41 9 -82 11 -60 2 -88 -2 -134 -22z"/>
<path d="M7158 6377 c-10 -3 -18 -7 -18 -10 0 -12 86 -130 141 -192 117 -135
254 -228 401 -274 79 -24 99 -26 99 -9 0 7 -26 65 -57 129 -48 99 -68 127
-123 179 -130 120 -257 184 -361 183 -35 -1 -72 -4 -82 -6z"/>
<path d="M1236 6348 c-3 -7 -11 -78 -18 -157 -15 -165 -2 -363 31 -492 22 -86
81 -246 94 -254 5 -3 19 26 32 65 32 96 79 182 120 222 l35 34 -13 81 c-29
179 -86 333 -152 414 -46 54 -122 106 -129 87z"/>
<path d="M8114 6325 c-95 -69 -149 -166 -198 -359 -41 -161 -40 -193 6 -244
43 -48 78 -116 110 -212 13 -39 25 -71 28 -71 3 0 15 22 27 50 92 212 126 445
103 707 -7 77 -16 146 -19 153 -5 9 -23 1 -57 -24z"/>
<path d="M1965 5921 c-85 -33 -217 -127 -215 -152 2 -11 6 -67 10 -125 4 -62
12 -112 21 -121 7 -9 17 -27 22 -40 9 -25 9 -25 61 16 86 68 211 208 285 319
38 58 66 108 62 112 -4 4 -49 9 -99 10 -72 2 -102 -2 -147 -19z"/>
<path d="M7216 5936 c-13 -3 -23 -8 -23 -11 0 -3 30 -52 68 -109 73 -109 198
-249 283 -317 l52 -41 11 26 c6 14 16 32 22 40 7 8 15 62 19 120 4 58 8 114
10 125 2 25 -136 121 -220 153 -54 20 -156 26 -222 14z"/>
<path d="M1615 5722 c-58 -30 -110 -99 -146 -193 -51 -131 -77 -313 -51 -352
8 -14 10 -13 10 3 0 35 80 191 119 235 21 23 59 53 86 67 l47 25 0 86 c0 88
-8 151 -20 150 -3 0 -23 -10 -45 -21z"/>
<path d="M7735 5711 c-4 -18 -7 -72 -7 -119 l0 -86 36 -17 c71 -34 123 -93
171 -193 25 -53 45 -105 45 -115 0 -17 2 -18 11 -4 36 57 -25 340 -99 448 -33
50 -113 119 -137 119 -8 0 -17 -15 -20 -33z"/>
<path d="M672 5720 c0 -19 75 -153 149 -267 58 -89 66 -98 96 -98 107 -1 219
-59 387 -200 l39 -32 -6 40 c-13 91 -93 207 -243 352 -148 142 -237 192 -377
212 -33 5 -45 3 -45 -7z"/>
<path d="M8642 5718 c-119 -26 -190 -71 -330 -205 -144 -139 -221 -246 -237
-333 -5 -28 -8 -52 -6 -54 1 -1 23 15 47 37 147 130 268 191 375 192 29 0 38
9 90 87 64 96 155 260 155 279 0 15 -19 14 -94 -3z"/>
<path d="M1685 5421 c-124 -64 -222 -291 -213 -495 5 -101 46 -267 65 -261 47
15 152 222 182 358 19 84 25 388 8 405 -6 6 -22 3 -42 -7z"/>
<path d="M7679 5426 c-15 -24 -8 -325 10 -403 30 -136 135 -343 182 -358 19
-6 60 160 65 261 7 149 -58 354 -138 438 -44 46 -108 80 -119 62z"/>
<path d="M851 5270 c0 -7 21 -54 48 -103 84 -155 192 -305 220 -305 32 0 134
-47 219 -100 49 -31 90 -55 90 -54 0 2 -9 40 -21 85 -12 45 -21 100 -21 123 0
36 -8 48 -87 127 -99 100 -207 180 -278 207 -68 25 -170 37 -170 20z"/>
<path d="M8444 5265 c-79 -17 -131 -46 -237 -131 -113 -90 -185 -177 -185
-221 0 -31 -21 -136 -38 -190 -3 -12 24 0 86 39 85 53 187 100 219 100 28 0
136 150 220 305 27 49 49 95 49 102 0 16 -30 15 -114 -4z"/>
<path d="M7521 4938 c-4 -22 -8 -132 -7 -244 0 -177 4 -217 23 -289 25 -89 78
-211 120 -273 l26 -37 34 81 c18 45 50 112 71 150 36 66 37 71 31 147 -7 94
-48 240 -90 324 -32 62 -101 134 -157 163 -42 22 -41 23 -51 -22z"/>
<path d="M1826 4872 c-119 -63 -213 -258 -236 -492 -6 -67 -5 -72 30 -130 20
-34 52 -99 71 -146 l35 -86 24 31 c38 47 95 172 118 257 34 125 46 291 32 441
-6 71 -14 133 -17 138 -7 11 -14 10 -57 -13z"/>
<path d="M974 4790 c-22 -2 -39 -7 -39 -13 0 -27 233 -345 260 -354 5 -2 17
15 27 37 31 65 72 120 115 151 l40 29 -74 49 c-42 26 -96 57 -121 68 -51 23
-148 38 -208 33z"/>
<path d="M8267 4773 c-47 -15 -114 -51 -191 -103 l-45 -31 35 -24 c42 -29 80
-76 113 -142 13 -26 26 -50 29 -52 14 -16 265 324 265 359 1 13 -159 8 -206
-7z"/>
<path d="M1337 4497 c-56 -76 -61 -96 -61 -229 1 -137 27 -260 71 -334 l23
-38 0 113 c0 127 18 193 69 261 17 22 31 46 31 54 0 19 -93 202 -103 202 -5 0
-18 -13 -30 -29z"/>
<path d="M7986 4432 c-27 -52 -48 -101 -48 -108 0 -8 14 -32 31 -54 51 -68 69
-134 69 -262 0 -62 1 -113 2 -113 1 0 12 19 23 41 52 101 85 296 70 414 -7 58
-61 164 -87 173 -7 2 -33 -36 -60 -91z"/>
<path d="M1503 4221 c-44 -61 -58 -131 -51 -256 6 -103 33 -216 68 -285 18
-36 151 -204 162 -204 18 -1 35 121 34 246 0 110 -4 153 -24 221 -26 92 -132
320 -149 320 -5 0 -24 -19 -40 -42z"/>
<path d="M7802 4155 c-93 -195 -122 -317 -113 -479 5 -98 24 -201 38 -200 10
0 143 169 161 204 57 112 87 335 61 445 -13 54 -65 138 -85 138 -6 0 -34 -48
-62 -108z"/>
<path d="M593 4151 c-17 -3 -54 -12 -82 -21 -43 -14 -48 -18 -37 -32 20 -24
161 -130 249 -186 l76 -50 75 18 c114 28 289 6 432 -53 34 -14 -41 86 -92 123
-106 77 -345 174 -489 197 -70 11 -75 11 -132 4z"/>
<path d="M8674 4146 c-135 -22 -378 -122 -480 -196 -51 -37 -126 -137 -92
-123 142 59 325 82 437 53 l70 -18 76 50 c87 56 229 162 248 186 11 13 9 17
-16 27 -30 13 -143 34 -170 32 -9 -1 -42 -6 -73 -11z"/>
<path d="M1875 3976 c-55 -72 -71 -127 -71 -242 1 -186 50 -365 109 -400 18
-11 68 -52 111 -91 42 -40 83 -72 91 -72 20 0 27 49 27 176 0 132 -26 257 -85
399 -42 104 -131 265 -146 265 -5 0 -21 -16 -36 -35z"/>
<path d="M7440 3927 c-107 -182 -162 -354 -171 -532 -7 -148 1 -224 24 -224 9
0 50 32 92 71 41 40 91 81 109 92 25 14 41 36 55 74 58 154 74 390 33 483 -25
55 -70 120 -85 120 -4 0 -31 -38 -57 -84z"/>
<path d="M858 3793 c-27 -9 -49 -20 -49 -25 0 -14 197 -161 290 -217 l88 -53
97 6 c66 4 124 0 185 -11 49 -10 90 -16 92 -14 1 1 -22 36 -52 77 -30 41 -62
88 -72 105 -19 36 -111 79 -265 124 -109 31 -234 34 -314 8z"/>
<path d="M8233 3785 c-154 -47 -243 -88 -262 -123 -10 -17 -42 -65 -71 -106
-30 -42 -54 -76 -53 -77 1 -1 42 6 91 14 58 11 123 14 185 11 l97 -6 82 48
c80 47 190 126 266 190 l37 32 -42 19 c-71 31 -222 30 -330 -2z"/>
<path d="M1181 3404 c-54 -20 -100 -45 -99 -54 0 -3 37 -31 83 -61 72 -49 86
-54 104 -43 17 10 32 8 87 -11 37 -14 95 -38 129 -55 42 -21 71 -29 89 -25 35
8 124 -23 244 -84 57 -28 109 -47 130 -47 l37 0 1 58 c1 32 2 64 3 72 1 26
-113 114 -209 159 -135 65 -277 100 -425 106 -101 4 -130 1 -174 -15z"/>
<path d="M7891 3403 c-188 -44 -343 -115 -426 -194 l-48 -46 5 -69 4 -70 35 0
c20 0 73 20 129 47 120 61 209 92 244 84 18 -4 47 4 89 25 34 17 92 41 129 55
55 19 70 21 87 11 18 -11 32 -6 104 42 46 30 84 59 84 64 0 5 -28 22 -61 37
-81 37 -249 43 -375 14z"/>
<path d="M1322 3132 c-3 -65 3 -95 30 -150 39 -82 185 -225 282 -276 42 -21
79 -39 83 -39 4 0 -11 20 -33 45 -98 106 -140 191 -144 293 l-2 60 -101 48
c-56 26 -104 48 -108 48 -3 0 -7 -13 -7 -29z"/>
<path d="M7970 3110 l-98 -49 -4 -58 c-7 -104 -32 -159 -127 -270 -31 -36 -53
-66 -49 -66 4 0 40 18 82 39 51 27 103 68 165 129 109 109 146 176 146 265 0
33 -4 60 -8 60 -4 0 -52 -22 -107 -50z"/>
<path d="M2065 3083 c-11 -30 13 -143 41 -196 63 -116 219 -256 356 -321 72
-34 322 -90 337 -75 9 9 -54 129 -106 203 -104 146 -297 283 -532 376 -81 32
-88 33 -96 13z"/>
<path d="M7250 3072 c-226 -87 -431 -232 -534 -377 -53 -75 -116 -195 -107
-204 15 -15 265 41 337 75 137 65 293 205 356 321 28 53 52 166 41 196 -8 19
-18 18 -93 -11z"/>
<path d="M1621 3003 c9 -92 48 -160 152 -262 106 -105 182 -149 307 -179 116
-28 125 -27 125 6 0 64 -127 234 -239 319 -69 53 -307 179 -337 179 -12 0 -14
-12 -8 -63z"/>
<path d="M7649 3009 c-154 -76 -262 -156 -341 -255 -62 -76 -136 -206 -125
-218 12 -12 235 48 296 80 83 44 236 194 274 269 33 65 50 181 26 181 -8 0
-67 -26 -130 -57z"/>
<path d="M1455 2598 c-106 -19 -285 -79 -365 -122 -75 -40 -146 -100 -187
-161 l-31 -45 57 -8 c52 -6 306 10 357 23 12 3 38 29 58 58 56 84 163 155 320
214 50 19 59 26 42 31 -11 4 -32 12 -45 17 -33 13 -107 10 -206 -7z"/>
<path d="M7744 2604 c-12 -5 -31 -12 -42 -16 -17 -5 -7 -12 45 -32 120 -45
215 -102 277 -165 33 -33 63 -69 66 -80 8 -26 26 -30 194 -44 131 -11 225 -9
238 4 11 11 -38 79 -93 128 -139 125 -570 254 -685 205z"/>
<path d="M1813 2519 c-190 -54 -332 -128 -392 -205 -31 -40 -56 -81 -56 -93 0
-10 271 -6 353 7 65 9 107 25 211 78 72 37 163 77 202 89 59 17 71 25 67 40
-4 15 -27 24 -91 38 -47 10 -114 29 -150 43 -35 14 -65 25 -68 24 -2 0 -37
-10 -76 -21z"/>
<path d="M7460 2520 c-23 -11 -67 -26 -97 -33 -52 -12 -55 -14 -55 -46 0 -31
4 -35 74 -63 41 -16 117 -55 169 -86 66 -40 113 -60 154 -67 63 -11 325 -16
334 -6 11 10 -30 74 -78 122 -62 60 -147 105 -286 152 -147 48 -165 50 -215
27z"/>
<path d="M2279 2480 c0 -28 5 -67 12 -87 32 -97 186 -262 301 -323 34 -18 65
-33 69 -33 4 0 -17 30 -46 66 -79 97 -110 166 -114 256 l-4 76 -98 48 c-53 26
-102 48 -109 48 -7 0 -11 -21 -11 -51z"/>
<path d="M6382 2468 c-190 -40 -369 -114 -498 -206 -73 -52 -178 -163 -214
-228 l-24 -42 156 6 c169 7 215 18 341 81 198 100 317 228 332 358 4 28 5 51
2 51 -2 -1 -45 -10 -95 -20z"/>
<path d="M3024 2396 c0 -74 18 -131 65 -199 45 -67 159 -179 227 -225 54 -37
57 -37 101 -24 25 8 92 19 149 26 57 7 105 15 107 16 2 2 -12 26 -31 54 -52
76 -156 174 -254 239 -88 58 -281 156 -335 169 l-29 7 0 -63z"/>
<path d="M2576 2420 c-11 -28 6 -113 33 -168 35 -72 149 -194 235 -251 66 -44
180 -86 289 -106 48 -9 49 0 2 91 -89 174 -253 318 -475 419 -81 36 -76 35
-84 15z"/>
<path d="M7177 2410 c-6 -2 -49 -14 -96 -27 l-86 -23 -6 -43 c-15 -98 -75
-185 -195 -283 l-48 -38 48 11 c67 15 182 74 266 137 101 76 161 165 163 242
1 28 -12 35 -46 24z"/>
<path d="M6773 2346 c-208 -61 -406 -190 -505 -328 l-43 -60 87 -3 c183 -7
310 42 479 184 65 55 104 117 117 185 9 48 8 49 -19 48 -15 0 -67 -12 -116
-26z"/>
<path d="M2152 2315 c-238 -81 -396 -194 -457 -325 l-25 -53 58 -3 c77 -4 302
35 422 73 85 27 230 86 242 98 3 3 -18 30 -46 60 -27 31 -67 82 -88 114 l-38
59 -68 -23z"/>
<path d="M7271 2263 c-16 -33 -54 -84 -90 -120 l-63 -62 61 -23 c142 -54 475
-117 542 -104 31 7 -35 123 -108 191 -55 51 -270 176 -304 176 -6 0 -23 -26
-38 -58z"/>
<path d="M2424 1974 c-160 -25 -364 -96 -455 -158 -46 -31 -122 -109 -140
-144 -11 -20 -8 -21 69 -28 45 -4 140 -2 213 4 117 11 132 14 146 35 8 13 42
50 75 83 62 62 149 112 271 156 l68 25 -36 15 c-45 19 -133 24 -211 12z"/>
<path d="M6773 1923 l-48 -7 37 -20 c76 -40 192 -127 235 -175 25 -28 59 -76
76 -108 18 -36 40 -63 56 -69 76 -30 374 -93 386 -81 12 12 -69 143 -118 192
-90 87 -260 183 -426 240 -84 29 -136 36 -198 28z"/>
<path d="M3644 1901 c-127 -11 -179 -21 -179 -36 0 -22 64 -111 98 -137 88
-65 257 -120 401 -129 92 -6 96 -5 142 25 26 17 88 50 139 72 50 23 92 44 92
48 0 15 -189 104 -264 125 -74 20 -254 43 -314 40 -14 -1 -66 -4 -115 -8z"/>
<path d="M2746 1880 c-158 -42 -284 -100 -350 -162 -35 -32 -96 -114 -96 -128
0 -3 84 -5 188 -3 179 4 190 5 205 26 19 28 34 31 179 46 66 7 122 18 131 26
9 8 35 19 58 26 23 6 68 27 99 47 53 33 56 36 32 42 -151 33 -263 62 -302 80
-56 24 -52 24 -144 0z"/>
<path d="M6505 1889 c-18 -6 -99 -13 -182 -17 l-150 -6 29 -31 c111 -116 322
-229 537 -288 82 -22 256 -56 288 -56 10 0 -21 80 -50 126 -47 75 -188 180
-336 248 -83 38 -88 39 -136 24z"/>
<path d="M5539 1838 c-103 -16 -300 -85 -299 -104 0 -4 47 -35 104 -69 58 -34
115 -73 128 -86 22 -23 31 -25 136 -25 247 0 426 68 496 188 l19 33 -27 10
c-113 43 -433 73 -557 53z"/>
<path d="M4326 1645 c-150 -68 -182 -86 -250 -143 -119 -98 -275 -321 -311
-441 -18 -60 -23 -195 -8 -204 11 -7 174 103 252 169 208 177 346 373 411 581
24 75 25 84 14 83 -5 0 -53 -21 -108 -45z"/>
<path d="M5129 1656 c47 -234 135 -411 298 -600 66 -77 206 -207 272 -253 30
-21 37 -8 42 90 6 94 -12 165 -68 277 -81 163 -199 313 -300 382 -52 36 -233
139 -243 139 -4 0 -5 -16 -1 -35z"/>
<path d="M3145 1641 c-59 -7 -60 -10 -38 -54 43 -84 150 -145 321 -186 126
-29 216 -20 429 44 25 8 11 24 -62 72 -78 52 -225 107 -323 120 -78 11 -259
13 -327 4z"/>
<path d="M2840 1578 c-55 -6 -63 -15 -44 -52 62 -118 274 -207 476 -201 l93 3
-68 25 c-138 50 -219 112 -260 197 -17 35 -17 35 -86 34 -38 -1 -88 -4 -111
-6z"/>
<path d="M6001 1536 c-102 -14 -325 -107 -322 -135 1 -17 187 -88 256 -98 116
-16 313 14 408 62 36 19 125 109 125 127 0 9 -78 27 -182 42 -65 9 -225 10
-285 2z"/>
<path d="M6485 1380 c-59 -68 -131 -107 -249 -136 -40 -10 -71 -20 -69 -23 3
-2 37 -9 75 -14 132 -19 350 23 433 84 42 30 87 84 87 103 0 14 -80 34 -162
41 l-64 5 -51 -60z"/>
<path d="M3722 1323 c-34 -11 -81 -20 -103 -20 -35 -1 -49 -10 -121 -82 -152
-152 -232 -298 -232 -419 l0 -46 65 33 c78 39 213 126 287 185 46 36 55 49 66
99 11 51 64 156 121 242 19 28 19 29 0 28 -11 -1 -48 -10 -83 -20z"/>
<path d="M5741 1212 c47 -93 64 -141 80 -225 11 -54 16 -61 110 -144 95 -83
245 -192 265 -192 15 0 11 138 -6 196 -31 104 -222 371 -266 371 -15 0 -149
45 -205 68 -15 7 -11 -9 22 -74z"/>
<path d="M3353 1244 c-29 -7 -81 -31 -115 -53 -133 -89 -318 -291 -373 -409
-27 -58 -58 -201 -47 -212 8 -8 196 100 285 163 l74 52 17 91 c20 107 74 209
163 309 32 36 56 67 54 68 -2 2 -28 -2 -58 -9z"/>
<path d="M6111 1151 c0 -2 22 -36 48 -76 93 -138 130 -238 131 -350 l0 -58 71
-61 c91 -78 242 -186 260 -186 37 0 2 190 -54 293 -75 137 -242 335 -336 396
-23 15 -120 49 -120 42z"/>
</g>
</svg>
