<?xml version="1.0" encoding="UTF-8" standalone="no"?>
<!DOCTYPE svg PUBLIC "-//W3C//DTD SVG 1.1//EN" "http://www.w3.org/Graphics/SVG/1.1/DTD/svg11.dtd">
<svg width="100%" height="100%" viewBox="0 0 1182 1182" version="1.1" xmlns="http://www.w3.org/2000/svg" xmlns:xlink="http://www.w3.org/1999/xlink" xml:space="preserve" xmlns:serif="http://www.serif.com/" style="fill-rule:evenodd;clip-rule:evenodd;stroke-linejoin:round;stroke-miterlimit:2;">
    <g transform="matrix(1,0,0,1,-1396,0)">
        <g id="Hops-Favicon" serif:id="Hops Favicon" transform="matrix(1,0,0,1,1396,0)">
            <rect x="0" y="0" width="1181.1" height="1181.1" style="fill:none;"/>
            <g transform="matrix(11.6139,8.32421,-8.32421,11.6139,252.885,-810.751)">
                <g>
                    <g>
                        <path d="M73.199,40.191C73.199,40.191 68.908,42.559 65.821,47.117C64.042,49.745 62.728,53.097 62.7,57.044C62.822,60.969 64.172,64.439 65.947,67.229C68.985,72.008 73.088,74.783 73.088,74.783L74.338,75.699L76.17,73.199L74.92,72.283C74.92,72.283 71.587,69.593 69.167,65.299C67.858,62.976 66.813,60.165 66.839,56.997C66.747,53.912 67.743,51.285 69.019,49.156C71.415,45.159 74.809,42.84 74.809,42.84L76.133,42.035L74.524,39.386L73.199,40.191Z" style="fill:rgb(77,172,30);"/>
                        <g transform="matrix(0.735384,0.677651,-0.677651,0.735384,44.1666,-39.0743)">
                            <path d="M74.783,40.139C74.783,40.139 69.833,41.52 66.206,46.725C64.503,49.169 63.144,52.481 62.71,56.851C62.46,60.883 63.705,64.412 65.494,67.227C68.477,71.92 72.802,74.599 72.802,74.599L74.09,75.461L75.814,72.885L74.526,72.023C74.526,72.023 71.041,69.455 68.704,65.305C67.435,63.052 66.508,60.306 66.829,57.191C67.064,53.61 68.1,50.886 69.384,48.818C72.036,44.552 75.745,43.086 75.745,43.086L77.218,42.605L76.257,39.658L74.783,40.139Z" style="fill:rgb(77,172,30);"/>
                        </g>
                        <g transform="matrix(0.986864,-0.161556,0.161556,0.986864,-8.85435,51.6965)">
                            <path d="M63.805,56.649C63.131,59.17 63.145,61.52 63.587,63.635C63.801,64.66 64.133,65.625 64.545,66.509C65.143,67.789 65.902,68.905 66.673,69.853C68.802,72.469 71.002,73.83 71.002,73.83L72.252,74.747L74.085,72.247L72.835,71.331C72.835,71.331 70.985,69.637 69.378,66.9C68.998,66.253 68.651,65.541 68.306,64.79C67.797,63.684 67.325,62.482 67.071,61.137C66.844,59.929 66.694,58.639 66.85,57.23L67.141,55.708L64.096,55.126L63.805,56.649Z" style="fill:rgb(77,172,30);"/>
                        </g>
                        <g transform="matrix(0.999873,0.015954,-0.015954,0.999873,1.32868,23.3998)">
                            <path d="M63.22,57.038C63.077,59.767 63.587,62.366 64.497,64.714C64.904,65.766 65.405,66.761 65.961,67.68C66.549,68.652 67.204,69.536 67.867,70.334C70.605,73.632 73.38,75.499 73.38,75.499L74.599,76.457L76.514,74.02L75.295,73.062C75.295,73.062 73.127,70.971 70.916,67.785C70.116,66.633 69.322,65.332 68.589,63.933C67.501,61.856 66.503,59.576 66.319,57.003L66.302,55.454L63.202,55.489L63.22,57.038Z" style="fill:rgb(77,172,30);"/>
                        </g>
                        <g transform="matrix(-0.924819,-0.380408,0.380408,-0.924819,111.465,165.528)">
                            <path d="M73.228,40.174C73.228,40.174 71.968,40.685 70.446,41.886C69.691,42.482 68.881,43.258 68.192,44.233C67.82,44.758 67.499,45.349 67.236,45.987C66.675,47.34 66.311,48.859 66.331,50.552L66.184,52.095L69.269,52.389L69.416,50.846C69.692,49.47 70.381,48.388 71.023,47.387C71.469,46.692 71.936,46.068 72.381,45.508C73.657,43.9 74.78,42.857 74.78,42.857L76.121,42.081L74.57,39.398L73.228,40.174Z" style="fill:rgb(77,172,30);"/>
                        </g>
                        <g transform="matrix(0.934437,0.356128,-0.356128,0.934437,15.1235,3.82931)">
                            <path d="M65.021,61.514C65.1,63.602 65.421,65.401 65.936,66.951C66.208,67.77 66.548,68.51 66.923,69.172C67.359,69.941 67.846,70.604 68.34,71.174C70.686,73.878 72.996,74.709 72.996,74.709L74.395,75.377L75.73,72.58L74.331,71.912C74.331,71.912 72.74,70.753 71.152,68.242C70.67,67.479 70.186,66.598 69.713,65.577C69.125,64.309 68.482,62.883 68.096,61.121L67.899,59.584L64.825,59.977L65.021,61.514Z" style="fill:rgb(77,172,30);"/>
                        </g>
                        <g transform="matrix(-0.914831,-0.403838,0.403838,-0.914831,104.843,152.806)">
                            <path d="M73.126,40.238C73.126,40.238 70.9,41.527 68.466,43.983C67.192,45.269 65.86,46.876 64.808,48.772C64.223,49.826 63.74,50.977 63.383,52.191C62.612,54.809 62.389,57.718 63.139,60.813L63.421,62.337L66.469,61.773L66.187,60.249C65.807,57.354 66.522,54.805 67.517,52.55C68.201,51 69.056,49.601 69.929,48.357C72.305,44.976 74.882,42.792 74.882,42.792L76.159,41.914L74.403,39.36L73.126,40.238Z" style="fill:rgb(77,172,30);"/>
                        </g>
                        <g transform="matrix(0.928514,0.371297,-0.371297,0.928514,12.2066,-10.7681)">
                            <path d="M63.22,57.038C63.072,59.673 63.497,62.121 64.285,64.309C64.651,65.328 65.11,66.282 65.623,67.159C66.173,68.098 66.791,68.945 67.418,69.703C70.047,72.879 72.745,74.559 72.745,74.559L73.994,75.477L75.831,72.981L74.582,72.062C74.582,72.062 72.577,70.258 70.584,67.326C70.116,66.637 69.663,65.879 69.2,65.084C68.51,63.9 67.828,62.62 67.319,61.198C66.852,59.895 66.447,58.516 66.319,57.003L66.302,55.454L63.202,55.489L63.22,57.038Z" style="fill:rgb(77,172,30);"/>
                        </g>
                        <g transform="matrix(-0.826756,-0.562561,0.562561,-0.826756,87.0915,141.238)">
                            <path d="M73.498,40.05C73.498,40.05 71.435,40.554 69.042,42.06C67.79,42.848 66.454,43.918 65.332,45.326C64.721,46.092 64.188,46.967 63.76,47.932C62.903,49.865 62.413,52.14 62.628,54.793L62.646,56.343L65.745,56.308L65.728,54.758C65.8,53.649 66.053,52.663 66.352,51.75C66.859,50.203 67.705,48.977 68.571,47.895C69.444,46.805 70.359,45.875 71.252,45.154C73.015,43.731 74.51,42.98 74.51,42.98L75.975,42.474L74.963,39.544L73.498,40.05Z" style="fill:rgb(77,172,30);"/>
                        </g>
                    </g>
                    <g transform="matrix(-1,0,0,1,148.99,0)">
                        <path d="M74.809,42.84C74.809,42.84 71.414,45.158 69.017,49.155C67.741,51.284 66.746,53.911 66.838,56.997C66.814,60.18 67.946,62.993 69.352,65.311C71.924,69.552 75.43,72.199 75.43,72.199L76.708,73.075L74.956,75.632L73.678,74.756C73.678,74.756 69.391,72.046 66.19,67.343C64.281,64.538 62.822,61.028 62.701,57.044C62.729,53.097 64.043,49.746 65.823,47.118C68.909,42.561 73.199,40.191 73.199,40.191L74.524,39.386L76.133,42.035L74.809,42.84Z" style="fill:rgb(77,172,30);"/>
                        <g transform="matrix(0.735384,0.677651,-0.677651,0.735384,44.1666,-39.0743)">
                            <path d="M75.745,43.086C75.745,43.086 72.031,44.547 69.38,48.815C68.095,50.883 67.065,53.61 66.832,57.191C66.51,60.358 67.746,63.098 69.344,65.316C72.198,69.276 76.229,71.678 76.229,71.678L77.593,72.414L76.12,75.142L74.756,74.406C74.756,74.406 68.539,71.292 65.053,65.761C63.465,63.241 62.486,60.229 62.707,56.851C63.144,52.481 64.507,49.172 66.211,46.728C69.838,41.525 74.783,40.139 74.783,40.139L76.257,39.658L77.218,42.605L75.745,43.086Z" style="fill:rgb(77,172,30);"/>
                        </g>
                        <g transform="matrix(0.986864,-0.161556,0.161556,0.986864,-8.85435,51.6965)">
                            <path d="M66.85,57.23C66.693,58.644 66.85,59.937 67.09,61.146C67.357,62.492 67.849,63.692 68.379,64.797C68.738,65.546 69.1,66.257 69.494,66.902C71.157,69.624 73.054,71.309 73.054,71.309L74.317,72.208L72.518,74.733L71.256,73.834C71.256,73.834 69.02,72.492 66.843,69.906C66.05,68.963 65.267,67.853 64.647,66.576C64.216,65.691 63.867,64.724 63.638,63.696C63.162,61.565 63.126,59.194 63.805,56.649L64.096,55.126L67.141,55.708L66.85,57.23Z" style="fill:rgb(77,172,30);"/>
                        </g>
                        <g transform="matrix(0.999873,0.015954,-0.015954,0.999873,1.32868,23.3998)">
                            <path d="M66.319,57.003C66.505,59.522 67.42,61.728 68.404,63.726C69.076,65.092 69.803,66.353 70.538,67.466C72.595,70.579 74.632,72.576 74.632,72.576L75.848,73.537L73.927,75.969L72.71,75.009C72.71,75.009 70.039,73.212 67.431,69.943C66.807,69.162 66.193,68.293 65.646,67.336C65.133,66.44 64.676,65.468 64.308,64.435C63.508,62.189 63.074,59.693 63.22,57.038L63.202,55.489L66.302,55.454L66.319,57.003Z" style="fill:rgb(77,172,30);"/>
                        </g>
                        <g transform="matrix(-0.924819,-0.380408,0.380408,-0.924819,111.465,165.528)">
                            <path d="M74.78,42.857C74.78,42.857 73.657,43.9 72.381,45.508C71.936,46.068 71.469,46.692 71.023,47.387C70.381,48.388 69.692,49.47 69.416,50.846L69.269,52.389L66.184,52.095L66.331,50.552C66.311,48.859 66.675,47.34 67.236,45.987C67.499,45.349 67.82,44.758 68.192,44.233C68.881,43.258 69.691,42.482 70.446,41.886C71.968,40.685 73.228,40.174 73.228,40.174L74.57,39.398L76.121,42.081L74.78,42.857Z" style="fill:rgb(77,172,30);"/>
                        </g>
                        <g transform="matrix(0.934437,0.356128,-0.356128,0.934437,15.1235,3.82931)">
                            <path d="M68.096,61.121C68.482,62.883 69.125,64.309 69.713,65.578C70.186,66.598 70.67,67.479 71.152,68.242C72.74,70.753 74.331,71.912 74.331,71.912L75.73,72.58L74.395,75.377L72.996,74.709C72.996,74.709 70.686,73.878 68.34,71.174C67.846,70.604 67.359,69.941 66.923,69.172C66.548,68.51 66.208,67.77 65.936,66.951C65.421,65.401 65.1,63.602 65.021,61.514L64.825,59.977L67.899,59.584L68.096,61.121Z" style="fill:rgb(77,172,30);"/>
                        </g>
                        <g transform="matrix(-0.914831,-0.403838,0.403838,-0.914831,104.843,152.806)">
                            <path d="M74.882,42.792C74.882,42.792 72.305,44.976 69.929,48.357C69.056,49.601 68.201,51 67.517,52.55C66.522,54.805 65.807,57.354 66.187,60.249L66.469,61.773L63.421,62.337L63.139,60.813C62.389,57.718 62.612,54.809 63.383,52.191C63.74,50.977 64.223,49.826 64.808,48.772C65.86,46.876 67.192,45.27 68.466,43.983C70.9,41.527 73.126,40.238 73.126,40.238L74.403,39.36L76.159,41.914L74.882,42.792Z" style="fill:rgb(77,172,30);"/>
                        </g>
                        <g transform="matrix(0.928514,0.371297,-0.371297,0.928514,12.2066,-10.7681)">
                            <path d="M74.07,43.863C74.07,43.863 70.88,45.837 68.707,49.618C67.586,51.568 66.743,54.018 66.836,56.997C66.812,60.13 67.885,62.837 69.228,65.046C71.722,69.151 75.161,71.604 75.161,71.604L76.465,72.441L74.791,75.05L73.487,74.213C73.487,74.213 69.217,71.702 66.062,67.089C64.221,64.397 62.823,60.993 62.703,57.044C62.736,53.204 63.897,50.063 65.486,47.639C68.414,43.172 72.595,41.137 72.595,41.137L73.959,40.399L75.433,43.126L74.07,43.863Z" style="fill:rgb(77,172,30);"/>
                        </g>
                    </g>
                </g>
                <g transform="matrix(0.633469,0.583737,-0.653558,0.709238,72.2261,-55.0432)">
                    <path d="M72.058,46.184C72.058,46.184 67.393,44.074 64.356,48.239C63.217,49.8 62.347,52.507 62.404,57.113C62.494,59.061 62.718,60.814 63.104,62.378C63.595,64.363 64.298,66.052 65.088,67.486C68.59,73.842 73.766,75.385 73.766,75.385L75.44,75.972L76.756,72.981L75.081,72.394C75.081,72.394 71.464,70.823 69.16,65.842C68.591,64.611 68.13,63.174 67.766,61.511C67.466,60.143 67.222,58.625 67.135,56.929C66.84,53.462 67.17,51.375 67.923,50.14C68.872,48.582 70.544,49.099 70.544,49.099L72.175,49.775L73.69,46.86L72.058,46.184Z" style="fill:rgb(77,172,30);"/>
                </g>
                <g transform="matrix(0.633469,0.583737,-0.653558,0.709238,78.5643,-53.7969)">
                    <path d="M63.487,51.077C62.202,54.355 62.006,57.484 62.499,60.336C62.735,61.706 63.145,63.01 63.68,64.219C64.449,65.959 65.467,67.507 66.518,68.842C69.387,72.487 72.508,74.542 72.508,74.542L73.888,75.574L76.198,73.111L74.819,72.079C74.819,72.079 71.983,69.594 69.679,65.697C69.127,64.764 68.625,63.745 68.155,62.668C67.456,61.066 66.866,59.325 66.649,57.421C66.455,55.715 66.457,53.899 66.944,51.97L67.444,50.426L63.987,49.533L63.487,51.077Z" style="fill:rgb(77,172,30);"/>
                </g>
            </g>
        </g>
    </g>
</svg>
